/vscmnt/brussel_pixiu_data/_data_brussel/112/vsc11236/PredSimResults/SUBJ10mtu3D/worker7.mot
version=1
nRows=5
nColumns=50
inDegrees=yes
endheader
                time	         pelvis_tilt	         pelvis_list	     pelvis_rotation	           pelvis_tx	           pelvis_ty	           pelvis_tz	       hip_flexion_r	     hip_adduction_r	      hip_rotation_r	        knee_angle_r	       ankle_angle_r	         mtp_angle_r	       hip_flexion_l	     hip_adduction_l	      hip_rotation_l	        knee_angle_l	       ankle_angle_l	         mtp_angle_l	    lumbar_extension	      lumbar_bending	     lumbar_rotation	 ercspn_r/activation	 intobl_r/activation	 extobl_r/activation	    abd_r/activation	    add_r/activation	hamstrings_r/activation	bifemsh_r/activation	glut_max_r/activation	iliopsoas_r/activation	rect_fem_r/activation	  vasti_r/activation	gastroc_r/activation	 soleus_r/activation	tib_ant_r/activation	 ercspn_l/activation	 intobl_l/activation	 extobl_l/activation	    abd_l/activation	    add_l/activation	hamstrings_l/activation	bifemsh_l/activation	glut_max_l/activation	iliopsoas_l/activation	rect_fem_l/activation	  vasti_l/activation	gastroc_l/activation	 soleus_l/activation	tib_ant_l/activation	
          1.08197860	         -4.68269886	         -0.31884897	          6.79125195	          1.30919411	          0.82335513	         -0.01308582	         32.17125056	         -1.79496694	         -5.30799512	         -8.35194146	          4.70784560	          0.26358138	        -15.92653320	          0.67468746	          3.49108979	         -4.09437380	          8.51317020	         24.48809433	         -6.98122993	         -0.99365808	         -4.46870737	          0.12520309	          0.16641668	          0.01000011	          0.01180331	          0.08196491	          0.13280736	          0.26473972	          0.01967126	          0.06194889	          0.01000022	          0.01000006	          0.01000024	          0.01000002	          0.28812858	          0.08499548	          0.01000001	          0.01000005	          0.07437307	          0.01000015	          0.01536828	          0.23581280	          0.02290952	          0.40754169	          0.01000017	          0.01000002	          0.32360826	          0.21644202	          0.02363732	
          1.09279839	         -4.68134530	         -0.29884317	          6.87687088	          1.32447938	          0.82208914	         -0.01300670	         31.92149915	         -1.59155809	         -4.72451256	         -9.65476808	          4.41887961	          0.26048285	        -16.07183709	          0.63293980	          3.14222279	         -5.75836252	          7.96998341	         26.16608685	         -6.79213339	         -0.59676981	         -4.78367435	          0.10607504	          0.14099195	          0.01000014	          0.01000002	          0.12177346	          0.11251719	          0.23317094	          0.06724043	          0.05248440	          0.01000015	          0.01000001	          0.01664319	          0.01201790	          0.30455513	          0.12401992	          0.01000003	          0.01000007	          0.06301042	          0.01180463	          0.01567944	          0.19978556	          0.01940947	          0.35662357	          0.01000027	          0.01000006	          0.29579014	          0.20944399	          0.02002603	
          1.10361817	         -4.67430528	         -0.29413331	          6.92291204	          1.34004197	          0.82100980	         -0.01284898	         31.52445016	         -1.39147305	         -4.08389956	        -10.86411090	          4.02617289	          0.25226583	        -16.10801425	          0.57513034	          2.75962774	         -7.64068944	          7.29818425	         27.80956092	         -6.57947496	         -0.17647074	         -5.08253572	          0.10464287	          0.11945159	          0.01000006	          0.03851786	          0.10316917	          0.09532694	          0.19754740	          0.10880875	          0.04446588	          0.01000004	          0.01000000	          0.01410047	          0.01018183	          0.38675294	          0.13470322	          0.01000001	          0.01000005	          0.05338375	          0.01000125	          0.01328588	          0.16926253	          0.01644413	          0.30213912	          0.01000019	          0.01000002	          0.25065594	          0.19753037	          0.01696647	
          1.11443796	         -4.66331041	         -0.28852488	          6.92289902	          1.35570245	          0.82023203	         -0.01258022	         31.06070794	         -1.18777829	         -3.52662350	        -11.92843280	          3.50538200	          0.24136644	        -15.97930141	          0.52023412	          2.33742808	         -9.81036105	          6.48733244	         29.34478337	         -6.36413334	          0.24200124	         -5.35670299	          0.11982809	          0.10120189	          0.01000006	          0.08845067	          0.13037290	          0.08076299	          0.16736633	          0.13285932	          0.03767243	          0.01000008	          0.01000004	          0.01194622	          0.01000002	          0.43267407	          0.16111635	          0.01000000	          0.01000005	          0.04522783	          0.01000007	          0.01125857	          0.14340279	          0.01393183	          0.25597909	          0.01000030	          0.01000002	          0.21236095	          0.18232514	          0.01437435	
          1.12525774	         -4.64777833	         -0.28049355	          6.87939015	          1.37132612	          0.81984522	         -0.01220987	         30.61439054	         -0.98095356	         -3.06774263	        -13.02765039	          3.02971997	          0.22802831	        -15.64627855	          0.46896262	          1.87046093	        -12.31234028	          5.54500278	         30.64754063	         -6.15780282	          0.65578795	         -5.60244488	          0.12114145	          0.08574036	          0.01000006	          0.12459358	          0.16990410	          0.06842420	          0.14179629	          0.14095141	          0.03191687	          0.01000009	          0.01373747	          0.01012112	          0.01000007	          0.45820293	          0.18839630	          0.01000001	          0.01000004	          0.03831796	          0.01703151	          0.01767829	          0.12149387	          0.01180339	          0.21687087	          0.01000017	          0.01000003	          0.17991663	          0.16206417	          0.01217826	
